<?xml version="1.0" encoding="utf-8"?><svg xmlns="http://www.w3.org/2000/svg" xmlns:xlink="http://www.w3.org/1999/xlink"><symbol viewBox="0 0 17.62 14.031" id="CART" xmlns="http://www.w3.org/2000/svg"><path data-name="SHOPPING CART" d="M17.54 3.1l-2.48 5.5a.815.815 0 01-.7.485l-7.12.475.41 1.177h7.76a1.65 1.65 0 11-1.65 1.651h-7.7a1.65 1.65 0 11-1.65-1.651H5.9L2.72 1.662H.83a.825.825 0 010-1.65h2.48a.835.835 0 01.78.554l.48 1.373h12.21a.826.826 0 01.83.825.941.941 0 01-.07.336zm-12.39.487l1.52 4.357 7.09-.473 1.75-3.884H5.15z" fill-rule="evenodd"/></symbol><symbol viewBox="0 0 17.62 17.625" id="GLASS" xmlns="http://www.w3.org/2000/svg"><path data-name="MAGNIFYING GLASS" d="M17.13 14.795a1.653 1.653 0 01-2.34 2.334l-4.83-4.836a6.627 6.627 0 112.33-2.334l4.84 4.836zM6.61 1.662a4.95 4.95 0 104.95 4.95 4.952 4.952 0 00-4.95-4.95z" fill-rule="evenodd"/></symbol><symbol viewBox="0 0 16.031 14.25" id="SPEECH" xmlns="http://www.w3.org/2000/svg"><path data-name="SPEECH BUBBLE 2" d="M8.447 12.23a11.451 11.451 0 01-1.676-.25 6.352 6.352 0 01-5.647 2.23c2.441-1.15 2.391-3.07 1.957-3.32A5.615 5.615 0 01.013 6.13c0-3.4 3.727-6.14 8.434-6.14s7.577 2.74 7.577 6.14-2.869 6.1-7.577 6.1zM4.273 4.75a1.5 1.5 0 101.5 1.49 1.5 1.5 0 00-1.5-1.49zm3.75 0a1.5 1.5 0 101.5 1.49 1.5 1.5 0 00-1.5-1.49zm3.75 0a1.5 1.5 0 101.5 1.49 1.5 1.5 0 00-1.5-1.49z" fill-rule="evenodd"/></symbol><symbol viewBox="0 0 19.438 11.25" id="VIEW" xmlns="http://www.w3.org/2000/svg"><path d="M19.429 5.65a.117.117 0 000 .02v.05a.734.734 0 01-.2.41c-.2.25-.427.48-.651.71a16.685 16.685 0 01-4.123 3.12 11.065 11.065 0 01-3.09 1.12 9.027 9.027 0 01-3.55-.05 13.554 13.554 0 01-5.5-2.86A15.053 15.053 0 01.207 6.13a.778.778 0 010-1.05c.2-.24.426-.47.651-.7a16.648 16.648 0 014.123-3.12A11.048 11.048 0 018.07.14a8.843 8.843 0 013.55.05 13.433 13.433 0 015.5 2.86 14.981 14.981 0 012.108 2.03.8.8 0 01.2.41v.01a.059.059 0 010 .02v.01a.134.134 0 000 .02v.06l.001.04zm-9.72-3.84a3.645 3.645 0 103.646 3.65 3.645 3.645 0 00-3.646-3.65zm0 5.47a1.825 1.825 0 111.823-1.82 1.824 1.824 0 01-1.823 1.82z" fill-rule="evenodd"/></symbol><symbol viewBox="0 0 16 16" id="dribbble" xmlns="http://www.w3.org/2000/svg"><path d="M15.837 6.4a7.9 7.9 0 00-.466-1.5 8.22 8.22 0 00-.738-1.36 8.093 8.093 0 00-.976-1.18 8.443 8.443 0 00-1.184-.98 7.971 7.971 0 00-8.947 0 8.434 8.434 0 00-1.183.98 8.093 8.093 0 00-.976 1.18A8.22 8.22 0 00.629 4.9a7.9 7.9 0 00-.467 1.5 8.131 8.131 0 000 3.23 7.9 7.9 0 00.467 1.5 8.22 8.22 0 00.738 1.36 8.093 8.093 0 00.976 1.18 8.434 8.434 0 001.183.98 7.971 7.971 0 008.947 0 8.443 8.443 0 001.184-.98 8.093 8.093 0 00.976-1.18 8.22 8.22 0 00.738-1.36 7.9 7.9 0 00.466-1.5 8.082 8.082 0 000-3.23zM14.83 7.95a15.962 15.962 0 00-4.759-.23 20.156 20.156 0 00-.601-1.34 8.874 8.874 0 003.807-2.7 6.794 6.794 0 011.553 4.27zm-2.317-5.06a7.451 7.451 0 01-3.569 2.47A34.349 34.349 0 006.39 1.38 6.581 6.581 0 018 1.18a6.812 6.812 0 014.513 1.71zM6.364 1.38a.039.039 0 00-.02.01.022.022 0 01.02-.01zm-1.279.46a40.568 40.568 0 012.537 3.93 25.7 25.7 0 01-6.308.84 6.831 6.831 0 013.771-4.77zM1.168 8.01V7.8a25.209 25.209 0 007.015-.97c.2.38.383.77.554 1.16a2.662 2.662 0 00-.269.08 10.8 10.8 0 00-5.557 4.51 6.807 6.807 0 01-1.743-4.57zM8 14.85a6.8 6.8 0 01-4.352-1.57l.153.12a9.25 9.25 0 015.362-4.27c.015 0 .03-.01.045-.01a28.411 28.411 0 011.459 5.19A6.951 6.951 0 018 14.85zm3.818-1.17a29.625 29.625 0 00-1.33-4.88 9.871 9.871 0 014.258.3 6.827 6.827 0 01-2.928 4.58z" fill-rule="evenodd"/></symbol><symbol viewBox="0 0 7.5 16.03" id="facebook" xmlns="http://www.w3.org/2000/svg"><path d="M7.493.01v2.58s-1.9-.19-2.374.54a7.322 7.322 0 00-.128 2.4h2.518c-.213.98-.365 1.64-.522 2.48h-2.01v8.01H1.488V8.05H0V5.53h1.468c.075-1.84.1-3.67 1.018-4.6C3.518-.11 4.5.01 7.493.01z" fill-rule="evenodd"/></symbol><symbol viewBox="0 0 16 13.78" id="google" xmlns="http://www.w3.org/2000/svg"><path data-name="google plus" d="M13.5 3.47v2.44h-1V3.47H10v-1h2.5V.03h1v2.44H16v1h-2.5zM6.585 1a2.55 2.55 0 011.408 2.33 2.721 2.721 0 01-1.239 2.1 1.356 1.356 0 00-.81 1.18A2.684 2.684 0 007.055 7.9a2.866 2.866 0 011.444 2.7c0 1.49-1.444 3.17-4.116 3.17C2.039 13.77 0 12.65 0 11.15c0-1.52 1.866-2.99 4.209-2.99.256 0 .49-.01.732-.01A1.621 1.621 0 014.367 7a1.774 1.774 0 01.213-.79c-.127.01-.257-.01-.391-.01A3.059 3.059 0 01.975 3.15C.975 1.51 2.756.01 4.648.01h4.22L7.923 1H6.585zM4.656 8.55c-1.62-.02-3.071.97-3.071 2.15 0 1.21 1.17 2.1 2.789 2.1 2.277 0 3.071-.82 3.071-2.03a1.8 1.8 0 00-.052-.43c-.178-.69-.808-1.02-1.688-1.62a3.209 3.209 0 00-1.049-.17zm1.82-5.2A2.813 2.813 0 004.12.79C3.033.76 2.304 1.83 2.492 3.23A2.827 2.827 0 004.8 5.83c1.087.03 1.863-1.08 1.676-2.48z" fill-rule="evenodd"/></symbol><symbol viewBox="0 0 16 16" id="instagram" xmlns="http://www.w3.org/2000/svg"><path d="M14 16.01H2a1.994 1.994 0 01-2-1.99v-12A2 2 0 012 .01h12a2 2 0 012 2.01v12a1.994 1.994 0 01-2 1.99zM8 4.91a3.1 3.1 0 00-2.811 1.8.177.177 0 01-.014.04 2.082 2.082 0 00-.08.2.867.867 0 00-.036.1c-.023.07-.042.14-.059.21a1.839 1.839 0 00-.064.33c0 .03-.011.06-.015.09-.011.11-.018.22-.018.33a3.1 3.1 0 106.2 0c0-.11-.007-.22-.018-.33 0-.03-.01-.06-.015-.09a1.839 1.839 0 00-.064-.33 3.296 3.296 0 00-.059-.21.867.867 0 00-.036-.1 2.082 2.082 0 00-.08-.2.177.177 0 01-.014-.04A3.1 3.1 0 008 4.91zm6.2-2.29a.8.8 0 00-.8-.8h-1.6a.8.8 0 00-.8.8v1.6a.793.793 0 00.8.79h1.6a.793.793 0 00.8-.79v-1.6zm0 4.09h-1.475a4.9 4.9 0 11-9.45 0H1.8v6.71a.793.793 0 00.8.79h10.8a.793.793 0 00.8-.79V6.71z" fill-rule="evenodd"/></symbol><symbol viewBox="0 0 12.25 16" id="pinterest" xmlns="http://www.w3.org/2000/svg"><path d="M5.094 10.39c-.131.52-.262 1.07-.4 1.6a12.462 12.462 0 01-.449 1.55 7.975 7.975 0 01-1.277 2.2c-.359.42-.283.25-.391.23-.083-.02-.09-.1-.106-.22a12.065 12.065 0 010-2.09 11.384 11.384 0 01.367-2.17c.3-1.29.592-2.55.9-3.85a.843.843 0 00.057-.28 3.931 3.931 0 01-.268-1.06 3.341 3.341 0 01.087-1.21 2 2 0 011.184-1.46 1.326 1.326 0 011.083.08 1.155 1.155 0 01.542.78 2.789 2.789 0 01-.049 1.18c-.167.76-.387 1.33-.586 2.07a2.253 2.253 0 00-.118 1.13 1.34 1.34 0 00.529.8 1.535 1.535 0 001.016.28 2.237 2.237 0 001.657-.98 5.8 5.8 0 001.047-2.93 7.165 7.165 0 00.043-1.26 3.464 3.464 0 00-.7-1.95 3.3 3.3 0 00-1.57-1.06 5.039 5.039 0 00-2.342-.15 4.148 4.148 0 00-3.072 2.21 4.412 4.412 0 00-.523 2.13 2.732 2.732 0 00.424 1.56c.083.13.205.23.286.38a1.058 1.058 0 01-.075.72c-.068.27-.076.64-.386.64a.966.966 0 01-.4-.15A3.193 3.193 0 01.09 6.78a5.607 5.607 0 010-2.03A5.771 5.771 0 012.837.91 6.6 6.6 0 015.279.07c.318-.05.647-.06 1-.08a6.136 6.136 0 012.7.5 5.549 5.549 0 011.863 1.35 5.711 5.711 0 011.395 3.49 8.506 8.506 0 01-.193 1.48 5.829 5.829 0 01-2.4 4.04 4.386 4.386 0 01-1.1.51 3.936 3.936 0 01-1.4.17 2.849 2.849 0 01-1.239-.36 2.01 2.01 0 01-.811-.78z" fill-rule="evenodd"/></symbol><symbol viewBox="0 0 10 16.03" id="tumblr" xmlns="http://www.w3.org/2000/svg"><path d="M10.009 15.15a9.526 9.526 0 01-1.849.67 7.785 7.785 0 01-1.789.2 4.728 4.728 0 01-1.718-.28 4.1 4.1 0 01-1.431-.79 2.892 2.892 0 01-.823-1.09 4.784 4.784 0 01-.228-1.68V6.57H.007V4.3a5.566 5.566 0 001.8-.88 4.389 4.389 0 001.075-1.37A6.3 6.3 0 003.44.01H5.7v3.7h3.682v2.86H5.7v4.1a7.024 7.024 0 00.086 1.73 1.494 1.494 0 00.607.69 2.32 2.32 0 001.209.32 4.31 4.31 0 002.406-.79v2.53z" fill-rule="evenodd"/></symbol><symbol viewBox="0 0 16 13" id="twitter" xmlns="http://www.w3.org/2000/svg"><path d="M10.883.02a3.343 3.343 0 012.594 1.03 5.48 5.48 0 001.682-.57c.136-.08.272-.15.409-.22a3.349 3.349 0 01-1.066 1.54 1.562 1.562 0 01-.36.25v.01A6.37 6.37 0 0016 1.56a5.263 5.263 0 01-1.113 1.28c-.171.14-.342.27-.513.41a9.429 9.429 0 01-.152 2.11 9.172 9.172 0 01-6.43 7.25 9.78 9.78 0 01-4.645.2 12.622 12.622 0 01-1.93-.63 8.359 8.359 0 01-.929-.48L0 11.52a5.155 5.155 0 001.049.04c.323-.05.639-.04.937-.1a7 7 0 001.97-.71 3.459 3.459 0 00.889-.59 2.867 2.867 0 01-.977-.17 3.32 3.32 0 01-2.082-2.1 3.225 3.225 0 001.465-.07 2.313 2.313 0 01-1.073-.43A3.15 3.15 0 01.633 4.58c.112.06.224.11.336.16a3.43 3.43 0 00.689.19.846.846 0 00.448.04H2.09c-.165-.19-.435-.32-.6-.52a3.356 3.356 0 01-.736-2.98 3.825 3.825 0 01.352-.86.015.015 0 00.016.01 2.144 2.144 0 00.3.35 6.58 6.58 0 00.977.93 9.684 9.684 0 004.012 1.94 6.152 6.152 0 001.474.19 3.043 3.043 0 01.016-1.54A3.214 3.214 0 019.759.29a3.949 3.949 0 01.728-.23c.129-.01.262-.03.396-.04z" fill-rule="evenodd"/></symbol><symbol viewBox="0 0 16 11" id="youtube" xmlns="http://www.w3.org/2000/svg"><path d="M13.537-.01H2.883C1.525-.01 0 .9 0 2.23v6.62c0 1.33 1.525 2.14 2.883 2.14h10.654a2.223 2.223 0 002.459-2.14V2.23a2.3 2.3 0 00-2.459-2.24zM6.964 8.04L6.932 3l3.508 2.54z" fill-rule="evenodd"/></symbol></svg>