<svg xmlns="http://www.w3.org/2000/svg" width="16" height="13.78"><path data-name="google plus" d="M13.5 3.47v2.44h-1V3.47H10v-1h2.5V.03h1v2.44H16v1h-2.5zM6.585 1a2.55 2.55 0 011.408 2.33 2.721 2.721 0 01-1.239 2.1 1.356 1.356 0 00-.81 1.18A2.684 2.684 0 007.055 7.9a2.866 2.866 0 011.444 2.7c0 1.49-1.444 3.17-4.116 3.17C2.039 13.77 0 12.65 0 11.15c0-1.52 1.866-2.99 4.209-2.99.256 0 .49-.01.732-.01A1.621 1.621 0 014.367 7a1.774 1.774 0 01.213-.79c-.127.01-.257-.01-.391-.01A3.059 3.059 0 01.975 3.15C.975 1.51 2.756.01 4.648.01h4.22L7.923 1H6.585zM4.656 8.55c-1.62-.02-3.071.97-3.071 2.15 0 1.21 1.17 2.1 2.789 2.1 2.277 0 3.071-.82 3.071-2.03a1.8 1.8 0 00-.052-.43c-.178-.69-.808-1.02-1.688-1.62a3.209 3.209 0 00-1.049-.17zm1.82-5.2A2.813 2.813 0 004.12.79C3.033.76 2.304 1.83 2.492 3.23A2.827 2.827 0 004.8 5.83c1.087.03 1.863-1.08 1.676-2.48z" fill="#95e1d3" fill-rule="evenodd"/></svg>