<svg xmlns="http://www.w3.org/2000/svg" width="16" height="16"><path d="M14 16.01H2a1.994 1.994 0 01-2-1.99v-12A2 2 0 012 .01h12a2 2 0 012 2.01v12a1.994 1.994 0 01-2 1.99zM8 4.91a3.1 3.1 0 00-2.811 1.8.177.177 0 01-.014.04 2.082 2.082 0 00-.08.2.867.867 0 00-.036.1c-.023.07-.042.14-.059.21a1.839 1.839 0 00-.064.33c0 .03-.011.06-.015.09-.011.11-.018.22-.018.33a3.1 3.1 0 106.2 0c0-.11-.007-.22-.018-.33 0-.03-.01-.06-.015-.09a1.839 1.839 0 00-.064-.33 3.296 3.296 0 00-.059-.21.867.867 0 00-.036-.1 2.082 2.082 0 00-.08-.2.177.177 0 01-.014-.04A3.1 3.1 0 008 4.91zm6.2-2.29a.8.8 0 00-.8-.8h-1.6a.8.8 0 00-.8.8v1.6a.793.793 0 00.8.79h1.6a.793.793 0 00.8-.79v-1.6zm0 4.09h-1.475a4.9 4.9 0 11-9.45 0H1.8v6.71a.793.793 0 00.8.79h10.8a.793.793 0 00.8-.79V6.71z" fill="#95e1d3" fill-rule="evenodd"/></svg>