<svg xmlns="http://www.w3.org/2000/svg" width="12.25" height="16"><path d="M5.094 10.39c-.131.52-.262 1.07-.4 1.6a12.462 12.462 0 01-.449 1.55 7.975 7.975 0 01-1.277 2.2c-.359.42-.283.25-.391.23-.083-.02-.09-.1-.106-.22a12.065 12.065 0 010-2.09 11.384 11.384 0 01.367-2.17c.3-1.29.592-2.55.9-3.85a.843.843 0 00.057-.28 3.931 3.931 0 01-.268-1.06 3.341 3.341 0 01.087-1.21 2 2 0 011.184-1.46 1.326 1.326 0 011.083.08 1.155 1.155 0 01.542.78 2.789 2.789 0 01-.049 1.18c-.167.76-.387 1.33-.586 2.07a2.253 2.253 0 00-.118 1.13 1.34 1.34 0 00.529.8 1.535 1.535 0 001.016.28 2.237 2.237 0 001.657-.98 5.8 5.8 0 001.047-2.93 7.165 7.165 0 00.043-1.26 3.464 3.464 0 00-.7-1.95 3.3 3.3 0 00-1.57-1.06 5.039 5.039 0 00-2.342-.15 4.148 4.148 0 00-3.072 2.21 4.412 4.412 0 00-.523 2.13 2.732 2.732 0 00.424 1.56c.083.13.205.23.286.38a1.058 1.058 0 01-.075.72c-.068.27-.076.64-.386.64a.966.966 0 01-.4-.15A3.193 3.193 0 01.09 6.78a5.607 5.607 0 010-2.03A5.771 5.771 0 012.837.91 6.6 6.6 0 015.279.07c.318-.05.647-.06 1-.08a6.136 6.136 0 012.7.5 5.549 5.549 0 011.863 1.35 5.711 5.711 0 011.395 3.49 8.506 8.506 0 01-.193 1.48 5.829 5.829 0 01-2.4 4.04 4.386 4.386 0 01-1.1.51 3.936 3.936 0 01-1.4.17 2.849 2.849 0 01-1.239-.36 2.01 2.01 0 01-.811-.78z" fill="#95e1d3" fill-rule="evenodd"/></svg>