<svg xmlns="http://www.w3.org/2000/svg" width="16.031" height="14.25"><path data-name="SPEECH BUBBLE 2" d="M8.447 12.23a11.451 11.451 0 01-1.676-.25 6.352 6.352 0 01-5.647 2.23c2.441-1.15 2.391-3.07 1.957-3.32A5.615 5.615 0 01.013 6.13c0-3.4 3.727-6.14 8.434-6.14s7.577 2.74 7.577 6.14-2.869 6.1-7.577 6.1zM4.273 4.75a1.5 1.5 0 101.5 1.49 1.5 1.5 0 00-1.5-1.49zm3.75 0a1.5 1.5 0 101.5 1.49 1.5 1.5 0 00-1.5-1.49zm3.75 0a1.5 1.5 0 101.5 1.49 1.5 1.5 0 00-1.5-1.49z" fill="#95e1d3" fill-rule="evenodd"/></svg>